<svg xmlns="http://www.w3.org/2000/svg" viewBox="0 0 24 24" fill="#FFFC00"><path d="M12.005 0C5.666 0 .526 5.14.526 11.479c0 6.339 5.14 11.479 11.479 11.479 6.339 0 11.479-5.14 11.479-11.479C23.484 5.14 18.344 0 12.005 0zm6.983 14.887s-1.006 2.503-4.103 2.503c0 0-.27 1.09-1.996 1.09h-1.782c-1.727 0-1.997-1.09-1.997-1.09-3.097 0-4.103-2.503-4.103-2.503-.306-.902 2.22-1.848 1.944-2.753 0 0-1.78-4.15-1.1-6.19.467-1.4 1.837-2.31 5.038-2.31 3.201 0 4.57 1.09 5.038 2.31.68 2.04-1.101 6.19-1.101 6.19-.275.903 2.252 1.847 1.946 2.753z" stroke="#000" stroke-width="1.5"/></svg>