<svg xmlns="http://www.w3.org/2000/svg" viewBox="0 0 24 24" fill="#000000"><path d="M12.525.02c1.31-.02 2.61-.01 3.91-.02.08 1.53.63 3.09 1.75 4.17 1.12 1.11 2.7 1.62 4.24 1.79v4.03c-1.44-.05-2.89-.35-4.2-.97-.57-.26-1.1-.65-1.58-1.09-.63.63-1.55 1.13-2.45 1.15-2.07.03-3.05-1.6-3.05-3.04v-6c-.02-1.55-.58-3.13-1.75-4.22-1.09-1.06-2.63-1.62-4.17-1.75V.02c1.47.05 2.92.35 4.23.97.57.26 1.1.65 1.58 1.09.63-.63 1.55-1.13 2.45-1.15 2.07-.03 3.05 1.6 3.05 3.04v6c.02 1.55.58 3.13 1.75 4.22 1.05 1.03 2.55 1.59 4.04 1.75v4.03c-1.47-.05-2.92-.35-4.23-.97-.59-.27-1.14-.68-1.64-1.14v4.97c0 3.9-3.02 7.08-6.9 7.08-3.87 0-7.07-3.2-7.07-7.08s3.2-7.08 7.07-7.08c.56 0 1.1.07 1.62.19v4.13c-.53-.17-1.09-.25-1.65-.24-1.59.02-2.94 1.22-3.06 2.81-.13 1.65 1.04 3.09 2.67 3.32 1.74.22 3.37-1.01 3.51-2.76.01-.17.01-.34.01-.52V5.51c1.31-.02 2.61-.01 3.91-.02h.01z"/></svg>